<svg xmlns="http://www.w3.org/2000/svg" width="24" height="24" viewBox="0 0 24 24" fill="none" stroke="#22d3ee" stroke-width="2" stroke-linecap="round" stroke-linejoin="round">
    <path d="M9.94 14.32c.32-.08.66-.03.94.13.32.18.58.49.73.85.14.36.14.76 0 1.12-.15.35-.4.66-.73.84-.28.16-.62.21-.94.13l-2.42-.64-2.42.64c-.32.08-.66-.03-.94-.13-.32-.18-.58-.49-.73-.85-.14-.36-.14-.76 0 1.12.15-.35.4-.66.73-.84.28-.16.62.21.94-.13l2.42.64Z"></path><path d="M19.03 5.27c.32-.08.66-.03.94.13.32.18.58.49.73.85.14.36.14.76 0 1.12-.15.35-.4.66-.73.84-.28.16-.62.21-.94.13l-2.42-.64-2.42.64c-.32.08-.66-.03-.94-.13-.32-.18-.58-.49-.73-.85-.14-.36-.14-.76 0 1.12.15-.35.4-.66.73-.84.28-.16.62.21.94-.13l2.42.64Z"></path><path d="M12 2v4"></path><path d="M12 18v4"></path><path d="M4.93 4.93l2.83 2.83"></path><path d="M16.24 16.24l2.83 2.83"></path><path d="M2 12h4"></path><path d="M18 12h4"></path><path d="M4.93 19.07l2.83-2.83"></path><path d="M16.24 7.76l2.83-2.83"></path>
</svg>
